<?xml version="1.0" standalone="no"?>
<!DOCTYPE svg PUBLIC "-//W3C//DTD SVG 20010904//EN"
 "http://www.w3.org/TR/2001/REC-SVG-20010904/DTD/svg10.dtd">
<svg version="1.0" xmlns="http://www.w3.org/2000/svg"
 width="1024.000000pt" height="1024.000000pt" viewBox="0 0 1024.000000 1024.000000"
 preserveAspectRatio="xMidYMid meet">

<g transform="translate(0.000000,1024.000000) scale(0.100000,-0.100000)"
fill="#000000" stroke="none">
<path d="M3835 8470 c-3 -5 -44 -10 -90 -10 -46 0 -87 -4 -90 -10 -3 -5 -17
-10 -31 -10 -13 0 -24 -4 -24 -10 0 -5 -9 -10 -20 -10 -17 0 -20 -7 -20 -41 0
-28 -8 -51 -25 -73 -27 -35 -33 -81 -12 -89 9 -3 9 -9 -1 -26 -12 -20 -10 -25
12 -42 l26 -20 0 -644 0 -643 -25 -30 c-14 -17 -25 -35 -25 -41 0 -6 -9 -11
-20 -11 -11 0 -20 -4 -20 -10 0 -5 -9 -10 -20 -10 -11 0 -34 -14 -52 -30 -17
-17 -44 -41 -59 -53 -21 -16 -25 -25 -17 -34 8 -10 3 -14 -21 -19 -17 -4 -36
-15 -42 -25 -5 -11 -20 -19 -33 -19 -28 0 -43 -16 -48 -49 -2 -16 -15 -30 -35
-40 -18 -9 -33 -21 -33 -28 0 -6 -11 -20 -25 -31 -14 -11 -25 -27 -25 -36 0
-20 -20 -56 -42 -77 -10 -9 -18 -26 -18 -38 0 -12 -7 -24 -15 -27 -12 -5 -15
-24 -15 -85 0 -46 -4 -79 -10 -79 -15 0 -14 -3857 1 -3862 15 -5 15 -61 0 -66
-6 -2 -11 -25 -11 -53 0 -41 4 -51 25 -65 14 -9 25 -23 25 -30 0 -8 6 -14 14
-14 15 0 76 -56 76 -70 0 -6 13 -10 29 -10 15 0 40 -9 54 -20 14 -11 39 -20
55 -20 17 0 34 -4 37 -10 3 -5 15 -10 26 -10 10 0 19 -4 19 -10 0 -5 7 -7 15
-4 8 3 29 -1 46 -10 36 -18 85 -21 94 -7 7 12 65 -7 65 -20 0 -5 54 -9 119 -9
73 0 122 -4 126 -10 8 -13 173 -11 181 2 8 13 129 9 142 -4 9 -9 15 -9 24 0 7
7 41 12 84 12 40 0 76 5 79 10 3 6 23 10 43 10 20 0 46 7 56 15 13 10 32 12
62 8 30 -4 44 -2 44 6 0 6 18 11 45 11 34 0 48 5 57 20 7 11 23 20 36 20 12 0
32 6 43 13 17 9 23 9 26 0 4 -10 8 -9 19 1 8 8 14 18 14 23 0 16 51 63 68 63
17 0 25 16 50 90 8 22 8 38 2 44 -13 13 -13 79 0 92 12 12 7 3796 -5 3902 -4
34 -11 62 -16 62 -14 0 -11 48 4 53 6 3 2 6 -10 6 -19 1 -23 7 -23 31 0 17 -4
30 -10 30 -5 0 -17 17 -27 38 -9 20 -24 44 -32 52 -21 20 -39 49 -52 82 -9 23
-15 27 -35 22 -22 -6 -24 -3 -24 35 0 32 -4 41 -17 41 -23 1 -53 23 -53 39 0
22 -28 41 -59 41 -24 0 -31 4 -31 20 0 11 -6 20 -13 20 -8 0 -22 9 -32 20 -10
11 -22 20 -27 20 -4 0 -22 14 -40 30 -37 35 -44 37 -53 9 -4 -11 -12 -18 -18
-16 -18 6 -21 38 -5 48 9 6 7 9 -9 9 l-22 0 -1 671 0 670 22 31 c16 24 21 43
19 77 -1 25 -7 50 -12 56 -5 5 -9 22 -9 37 0 15 -4 28 -10 28 -5 0 -10 9 -10
21 0 26 -23 49 -49 49 -12 0 -21 5 -21 10 0 6 -11 10 -24 10 -14 0 -28 4 -31
10 -4 6 -14 5 -27 -3 -16 -9 -22 -9 -25 1 -6 14 -79 16 -88 2 -3 -5 -26 -10
-51 -10 -24 0 -44 5 -44 10 0 6 -9 10 -19 10 -11 0 -23 -4 -26 -10z m-727
-2108 c2 -7 -6 -12 -17 -12 -21 0 -27 11 -14 24 9 9 26 2 31 -12z m2 -4276 c0
-14 -4 -28 -10 -31 -16 -10 -50 14 -50 35 0 16 7 20 30 20 25 0 30 -4 30 -24z
m1588 -80 c2 -9 1 -24 -3 -33 -10 -27 -39 8 -30 36 8 25 28 23 33 -3z m-1550
-7 c-2 -6 -8 -10 -13 -10 -5 0 -11 4 -13 10 -2 6 4 11 13 11 9 0 15 -5 13 -11z"/>
<path d="M5835 5294 c-8 -6 -15 -19 -15 -28 0 -9 -4 -16 -10 -16 -5 0 -10 -9
-10 -20 0 -11 -4 -20 -10 -20 -5 0 -10 -9 -10 -20 0 -11 -4 -28 -9 -38 -13
-25 -31 -86 -31 -104 0 -9 -7 -21 -15 -28 -8 -7 -15 -25 -15 -41 0 -15 -4 -31
-10 -34 -5 -3 -10 -19 -10 -36 0 -16 -4 -29 -10 -29 -5 0 -10 -8 -10 -18 0
-10 -4 -22 -9 -28 -14 -14 -17 -74 -5 -82 14 -9 27 -62 16 -62 -13 0 -39 23
-45 40 -3 8 -6 0 -6 -17 -1 -18 -5 -33 -11 -33 -5 0 -10 -22 -10 -48 0 -28 -9
-66 -20 -90 -12 -24 -20 -61 -20 -92 0 -36 -4 -52 -15 -56 -9 -4 -15 -19 -15
-35 0 -16 -5 -29 -12 -29 -9 0 -8 -3 2 -10 12 -7 12 -12 2 -22 -14 -14 -16
-114 -2 -123 6 -3 10 -31 10 -61 0 -30 -4 -54 -10 -54 -6 0 -10 -32 -10 -75 0
-43 4 -75 10 -75 6 0 10 -11 10 -24 0 -14 11 -33 25 -44 14 -11 25 -26 25 -34
0 -8 9 -24 20 -36 11 -12 20 -33 20 -47 0 -17 6 -25 18 -25 26 -1 52 -25 52
-49 0 -27 20 -49 38 -43 7 2 27 -12 46 -32 18 -20 40 -36 49 -36 9 0 17 -4 17
-10 0 -5 7 -10 15 -10 8 0 15 -4 15 -10 0 -5 9 -10 20 -10 11 0 20 -6 20 -13
0 -22 39 -47 73 -47 17 0 40 -7 51 -15 10 -7 42 -17 71 -20 32 -4 56 -13 59
-21 3 -8 16 -14 30 -14 14 0 28 -4 31 -10 3 -5 21 -10 40 -10 26 0 38 -7 56
-32 16 -21 19 -33 11 -36 -9 -3 -12 -137 -12 -561 0 -487 -2 -562 -16 -589 -8
-18 -20 -32 -25 -32 -5 0 -9 -18 -9 -40 0 -33 -3 -40 -19 -40 -11 0 -23 -4
-26 -10 -9 -14 -52 -12 -58 3 -4 9 -6 9 -6 0 -1 -9 -18 -13 -51 -13 -40 0 -48
-3 -44 -15 8 -19 -23 -32 -39 -16 -14 14 -117 15 -117 1 0 -5 -11 -10 -25 -10
-14 0 -33 -4 -43 -9 -38 -21 -58 -26 -109 -30 -19 -1 -23 -7 -23 -31 0 -26 4
-30 28 -30 15 0 33 -5 40 -12 9 -9 12 -9 12 0 0 7 7 12 15 12 8 0 15 -9 15
-20 0 -15 7 -20 29 -20 17 0 33 -5 36 -10 3 -6 42 -10 86 -10 46 0 79 -4 79
-10 0 -5 9 -10 19 -10 11 0 22 -6 24 -12 4 -10 6 -10 6 0 1 16 78 16 84 0 4
-10 6 -10 6 0 1 15 157 17 166 2 8 -13 152 -13 160 0 8 13 58 13 72 -1 8 -8
13 -8 17 0 4 6 37 11 77 11 39 0 69 4 69 10 0 6 33 10 80 10 47 0 80 4 80 10
0 6 9 10 19 10 11 0 23 5 26 10 3 6 19 10 36 10 16 0 29 5 29 10 0 6 16 10 35
10 32 0 35 2 35 30 0 29 -2 30 -45 30 -25 0 -45 5 -45 11 0 6 -8 8 -18 5 -10
-4 -27 1 -38 9 -10 8 -27 15 -36 15 -10 0 -18 5 -18 10 0 6 -28 10 -64 10 -36
0 -68 5 -71 10 -3 6 -44 10 -91 10 -92 0 -144 17 -144 48 0 22 -22 72 -32 72
-5 0 -8 258 -8 573 0 374 -4 577 -10 583 -7 7 -5 21 6 42 13 27 21 32 50 32
19 0 42 4 52 9 40 22 99 45 127 51 18 3 34 15 40 28 8 20 15 22 40 17 60 -14
70 -12 73 18 3 25 7 27 48 27 24 0 44 4 44 8 0 5 11 15 25 22 14 7 25 22 25
32 0 11 7 18 20 18 13 0 20 7 20 20 0 15 7 20 25 20 16 0 25 6 25 15 0 8 5 15
10 15 6 0 10 5 10 11 0 12 50 59 63 59 4 0 7 9 7 20 0 11 9 25 20 32 11 7 20
23 20 35 0 12 5 25 11 29 6 3 8 17 4 31 -5 21 -3 24 15 18 16 -5 20 -2 20 14
0 11 5 23 10 26 6 3 10 22 10 41 0 19 -4 34 -10 34 -5 0 -10 16 -10 35 0 19 5
35 10 35 13 0 13 63 -1 77 -6 6 -11 54 -11 114 -1 73 -5 107 -14 117 -8 7 -14
28 -14 45 0 32 -20 101 -33 113 -4 4 -7 33 -7 65 0 32 -4 61 -10 64 -5 3 -10
17 -10 30 0 12 -7 25 -15 29 -8 3 -15 16 -15 30 0 14 -4 28 -10 31 -5 3 -10
17 -10 31 0 13 -4 24 -10 24 -5 0 -10 18 -10 40 0 22 -4 40 -10 40 -5 0 -10
16 -10 35 0 22 -6 38 -15 41 -9 4 -15 19 -15 39 0 19 -4 37 -10 40 -5 3 -10
17 -10 30 0 13 -4 27 -10 30 -5 3 -10 17 -10 31 0 13 -4 24 -10 24 -5 0 -10 5
-10 12 0 27 -36 87 -52 88 -10 0 -18 5 -18 10 0 14 -33 13 -48 -2 -9 -9 -15
-9 -24 0 -16 16 -858 18 -858 2 0 -13 -47 -13 -55 0 -8 13 -90 8 -110 -6z
m-20 -124 c3 -5 -1 -10 -9 -10 -9 0 -16 5 -16 10 0 6 4 10 9 10 6 0 13 -4 16
-10z m1035 -1665 c0 -8 -7 -15 -15 -15 -8 0 -15 7 -15 15 0 8 7 15 15 15 8 0
15 -7 15 -15z m-490 -1430 c0 -8 -6 -15 -14 -15 -17 0 -28 14 -19 24 12 12 33
6 33 -9z m-280 -135 c0 -5 -9 -10 -20 -10 -11 0 -20 5 -20 10 0 6 9 10 20 10
11 0 20 -4 20 -10z"/>
</g>
</svg>
